<svg width="189" height="50" viewBox="0 0 189 50" fill="none" xmlns="http://www.w3.org/2000/svg">
<path d="M94.1691 0C93.7076 0 93.2461 0.17537 92.8676 0.54458L89.8216 3.58133L94.1691 7.91953L98.5166 3.58133L95.4706 0.54458C95.0921 0.17537 94.6306 0 94.1691 0ZM88.5202 4.88283L85.4834 7.92883C84.7542 8.64873 84.7542 9.81183 85.4834 10.5317L88.5202 13.5777L92.8584 9.23023L88.5202 4.88283ZM99.818 4.88283L95.4798 9.23023L99.818 13.5777L102.855 10.5317C103.584 9.81183 103.584 8.64873 102.855 7.92883L99.818 4.88283ZM94.1691 10.5409L89.8216 14.8792L92.8676 17.9159C93.5876 18.6451 94.7506 18.6451 95.4706 17.9159L98.5166 14.8792L94.1691 10.5409Z" fill="black"/>
<path d="M68.0399 44.6759C66.9225 44.6759 65.9613 44.4392 65.1564 43.9657C64.3562 43.4875 63.7407 42.8246 63.3098 41.977C62.8836 41.1295 62.6706 40.1541 62.6706 39.0509C62.6706 37.9335 62.886 36.9534 63.3169 36.1106C63.7525 35.263 64.3704 34.6025 65.1706 34.129C65.9708 33.6508 66.9225 33.4117 68.0257 33.4117C68.9774 33.4117 69.8107 33.5845 70.5257 33.9302C71.2407 34.2758 71.8065 34.7611 72.2231 35.3861C72.6398 36.0111 72.8694 36.745 72.9121 37.5878H70.0569C69.9765 37.0433 69.7634 36.6053 69.4177 36.2739C69.0768 35.9377 68.6294 35.7696 68.0754 35.7696C67.6067 35.7696 67.1971 35.8975 66.8467 36.1532C66.5011 36.4041 66.2312 36.7711 66.0371 37.254C65.8429 37.737 65.7459 38.3217 65.7459 39.0083C65.7459 39.7043 65.8406 40.2962 66.03 40.7839C66.2241 41.2715 66.4963 41.6432 66.8467 41.8989C67.1971 42.1546 67.6067 42.2824 68.0754 42.2824C68.4211 42.2824 68.7312 42.2114 69.0058 42.0694C69.2852 41.9273 69.5148 41.7214 69.6947 41.4515C69.8794 41.1768 70.0001 40.8478 70.0569 40.4642H72.9121C72.8647 41.2976 72.6374 42.0315 72.2302 42.666C71.8278 43.2957 71.2714 43.7881 70.5612 44.1432C69.851 44.4983 69.0105 44.6759 68.0399 44.6759ZM85.0197 33.5537L81.2057 44.4628H77.7966L73.9827 33.5537H77.1787L79.4444 41.3591H79.558L81.8165 33.5537H85.0197ZM89.5935 29.9174V44.4628H86.568V29.9174H89.5935ZM96.9888 44.6759C95.8666 44.6759 94.9007 44.4486 94.091 43.9941C93.2861 43.5348 92.6658 42.8861 92.2302 42.0481C91.7946 41.2053 91.5768 40.2086 91.5768 39.058C91.5768 37.9358 91.7946 36.951 92.2302 36.1035C92.6658 35.2559 93.279 34.5954 94.0697 34.1219C94.8652 33.6484 95.7979 33.4117 96.868 33.4117C97.5877 33.4117 98.2577 33.5277 98.878 33.7597C99.503 33.987 100.047 34.3303 100.511 34.7895C100.98 35.2488 101.345 35.8265 101.605 36.5225C101.866 37.2138 101.996 38.0234 101.996 38.9515V39.7824H92.7842V37.9074H99.1479C99.1479 37.4718 99.0532 37.0859 98.8638 36.7498C98.6744 36.4136 98.4116 36.1508 98.0754 35.9614C97.744 35.7673 97.3581 35.6702 96.9177 35.6702C96.4585 35.6702 96.0513 35.7767 95.6961 35.9898C95.3458 36.1982 95.0711 36.4799 94.8723 36.835C94.6734 37.1854 94.5716 37.576 94.5669 38.0069V39.7895C94.5669 40.3293 94.6663 40.7957 94.8652 41.1887C95.0688 41.5817 95.3552 41.8847 95.7246 42.0978C96.0939 42.3108 96.5318 42.4174 97.0385 42.4174C97.3747 42.4174 97.6824 42.37 97.9618 42.2753C98.2411 42.1806 98.4802 42.0386 98.6791 41.8492C98.878 41.6598 99.0295 41.4278 99.1336 41.1532L101.932 41.3378C101.79 42.0102 101.499 42.5973 101.058 43.0992C100.623 43.5964 100.059 43.9846 99.368 44.264C98.6815 44.5386 97.8884 44.6759 96.9888 44.6759ZM106.996 38.156V44.4628H103.97V33.5537H106.854V35.4785H106.982C107.223 34.844 107.628 34.3421 108.196 33.9728C108.764 33.5987 109.453 33.4117 110.263 33.4117C111.02 33.4117 111.681 33.5774 112.244 33.9089C112.808 34.2403 113.246 34.7138 113.558 35.3293C113.871 35.9401 114.027 36.6693 114.027 37.5168V44.4628H111.002V38.0566C111.006 37.389 110.836 36.8681 110.49 36.4941C110.145 36.1153 109.669 35.9259 109.063 35.9259C108.655 35.9259 108.296 36.0135 107.983 36.1887C107.675 36.3639 107.434 36.6196 107.259 36.9557C107.088 37.2872 107.001 37.6873 106.996 38.156ZM125.488 36.6645L122.719 36.835C122.671 36.5982 122.569 36.3852 122.413 36.1958C122.257 36.0017 122.051 35.8478 121.795 35.7341C121.544 35.6158 121.244 35.5566 120.893 35.5566C120.424 35.5566 120.029 35.656 119.707 35.8549C119.385 36.049 119.224 36.3094 119.224 36.6361C119.224 36.8965 119.328 37.1167 119.537 37.2966C119.745 37.4766 120.103 37.621 120.609 37.7299L122.584 38.1276C123.644 38.3454 124.435 38.6958 124.956 39.1787C125.477 39.6617 125.737 40.2962 125.737 41.0821C125.737 41.7971 125.526 42.4245 125.105 42.9643C124.688 43.504 124.115 43.9254 123.386 44.2285C122.662 44.5268 121.826 44.6759 120.879 44.6759C119.435 44.6759 118.284 44.3752 117.427 43.7739C116.575 43.1678 116.076 42.344 115.929 41.3023L118.905 41.1461C118.995 41.5864 119.212 41.9226 119.558 42.1546C119.904 42.3819 120.346 42.4955 120.886 42.4955C121.416 42.4955 121.843 42.3937 122.165 42.1901C122.491 41.9818 122.657 41.7142 122.662 41.3875C122.657 41.1129 122.541 40.888 122.314 40.7128C122.086 40.5329 121.736 40.3956 121.263 40.3009L119.373 39.9245C118.308 39.7114 117.515 39.3421 116.994 38.8165C116.478 38.291 116.22 37.621 116.22 36.8066C116.22 36.1058 116.409 35.5021 116.788 34.9955C117.172 34.4889 117.709 34.0982 118.4 33.8236C119.096 33.549 119.911 33.4117 120.844 33.4117C122.221 33.4117 123.306 33.7029 124.096 34.2853C124.892 34.8677 125.356 35.6607 125.488 36.6645Z" fill="black"/>
</svg>
