<svg width="239" height="196" viewBox="0 0 239 196" fill="none" xmlns="http://www.w3.org/2000/svg">
<rect x="80" y="75" width="75" height="75" fill="#F2CA6B" stroke="#1A1A1A" stroke-width="2"/>
<circle cx="155" cy="75" r="5" fill="white" stroke="#1A1A1A" stroke-width="2"/>
<circle cx="155" cy="150" r="5" fill="white" stroke="#1A1A1A" stroke-width="2"/>
<circle cx="80" cy="75" r="5" fill="white" stroke="#1A1A1A" stroke-width="2"/>
<circle cx="80" cy="150" r="5" fill="white" stroke="#1A1A1A" stroke-width="2"/>
<path d="M128.466 60.1128L118 81.7369L140.235 75.4804L131.349 70.2807L128.466 60.1128Z" fill="#50ABFF" stroke="#1A1A1A" stroke-width="1.26937" stroke-linecap="square"/>
<rect x="141.166" y="38.6347" width="62.1993" height="24.1181" fill="#50ABFF" stroke="black" stroke-width="1.26937"/>
<path d="M199.699 98.0104L175.243 122.466V129.537H182.314L206.77 105.081L199.699 98.0104Z" fill="white" stroke="#1A1A1A" stroke-width="2"/>
<path d="M207.83 96.9497C205.878 94.9971 202.712 94.9971 200.759 96.9497L200.052 97.6568L207.123 104.728L207.83 104.021C209.783 102.068 209.783 98.9023 207.83 96.9497Z" fill="white" stroke="#1A1A1A" stroke-width="2"/>
<circle cx="44.625" cy="151.625" r="22.95" stroke="#1A1A1A" stroke-width="1.35"/>
<circle cx="51.375" cy="158.375" r="23.625" fill="#FF5930"/>
<path d="M57.8496 50.4131L75.8193 32.4434L80.5566 37.1807L62.5869 55.1504H88V61.8496H62.5869L80.4834 79.7461L75.7461 84.4834L57.8496 66.5869V92H51.1504V66.5869L33.1807 84.5566L28.4434 79.8193L46.4131 61.8496H21V55.1504H46.4131L28.3701 37.1074L33.1074 32.3701L51.1504 50.4131V25H57.8496V50.4131Z" fill="#C479DE"/>
<path d="M57.8496 50.4131H57.1796V52.0306L58.3234 50.8868L57.8496 50.4131ZM75.8193 32.4434L76.2931 31.9696L75.8193 31.4958L75.3456 31.9696L75.8193 32.4434ZM80.5566 37.1807L81.0304 37.6544L81.5042 37.1807L81.0304 36.7069L80.5566 37.1807ZM62.5869 55.1504L62.1132 54.6766L60.9694 55.8204H62.5869V55.1504ZM88 55.1504H88.67V54.4804H88V55.1504ZM88 61.8496V62.5196H88.67V61.8496H88ZM62.5869 61.8496V61.1796H60.9694L62.1132 62.3234L62.5869 61.8496ZM80.4834 79.7461L80.9572 80.2199L81.4309 79.7461L80.9572 79.2723L80.4834 79.7461ZM75.7461 84.4834L75.2723 84.9572L75.7461 85.4309L76.2199 84.9572L75.7461 84.4834ZM57.8496 66.5869L58.3234 66.1132L57.1796 64.9694V66.5869H57.8496ZM57.8496 92V92.67H58.5196V92H57.8496ZM51.1504 92H50.4804V92.67H51.1504V92ZM51.1504 66.5869H51.8204V64.9694L50.6766 66.1132L51.1504 66.5869ZM33.1807 84.5566L32.7069 85.0304L33.1807 85.5042L33.6544 85.0304L33.1807 84.5566ZM28.4434 79.8193L27.9696 79.3456L27.4958 79.8193L27.9696 80.2931L28.4434 79.8193ZM46.4131 61.8496L46.8868 62.3234L48.0306 61.1796H46.4131V61.8496ZM21 61.8496H20.33V62.5196H21V61.8496ZM21 55.1504V54.4804H20.33V55.1504H21ZM46.4131 55.1504V55.8204H48.0306L46.8868 54.6766L46.4131 55.1504ZM28.3701 37.1074L27.8964 36.6337L27.4226 37.1074L27.8964 37.5812L28.3701 37.1074ZM33.1074 32.3701L33.5812 31.8964L33.1074 31.4226L32.6337 31.8964L33.1074 32.3701ZM51.1504 50.4131L50.6766 50.8868L51.8204 52.0306V50.4131H51.1504ZM51.1504 25V24.33H50.4804V25H51.1504ZM57.8496 25H58.5196V24.33H57.8496V25ZM57.8496 50.4131L58.3234 50.8868L76.2931 32.9171L75.8193 32.4434L75.3456 31.9696L57.3758 49.9393L57.8496 50.4131ZM75.8193 32.4434L75.3456 32.9171L80.0829 37.6544L80.5566 37.1807L81.0304 36.7069L76.2931 31.9696L75.8193 32.4434ZM80.5566 37.1807L80.0829 36.7069L62.1132 54.6766L62.5869 55.1504L63.0607 55.6242L81.0304 37.6544L80.5566 37.1807ZM62.5869 55.1504V55.8204H88V55.1504V54.4804H62.5869V55.1504ZM88 55.1504H87.33V61.8496H88H88.67V55.1504H88ZM88 61.8496V61.1796H62.5869V61.8496V62.5196H88V61.8496ZM62.5869 61.8496L62.1132 62.3234L80.0096 80.2199L80.4834 79.7461L80.9572 79.2723L63.0607 61.3758L62.5869 61.8496ZM80.4834 79.7461L80.0096 79.2723L75.2723 84.0096L75.7461 84.4834L76.2199 84.9572L80.9572 80.2199L80.4834 79.7461ZM75.7461 84.4834L76.2199 84.0096L58.3234 66.1132L57.8496 66.5869L57.3758 67.0607L75.2723 84.9572L75.7461 84.4834ZM57.8496 66.5869H57.1796V92H57.8496H58.5196V66.5869H57.8496ZM57.8496 92V91.33H51.1504V92V92.67H57.8496V92ZM51.1504 92H51.8204V66.5869H51.1504H50.4804V92H51.1504ZM51.1504 66.5869L50.6766 66.1132L32.7069 84.0829L33.1807 84.5566L33.6544 85.0304L51.6242 67.0607L51.1504 66.5869ZM33.1807 84.5566L33.6544 84.0829L28.9171 79.3456L28.4434 79.8193L27.9696 80.2931L32.7069 85.0304L33.1807 84.5566ZM28.4434 79.8193L28.9171 80.2931L46.8868 62.3234L46.4131 61.8496L45.9393 61.3758L27.9696 79.3456L28.4434 79.8193ZM46.4131 61.8496V61.1796H21V61.8496V62.5196H46.4131V61.8496ZM21 61.8496H21.67V55.1504H21H20.33V61.8496H21ZM21 55.1504V55.8204H46.4131V55.1504V54.4804H21V55.1504ZM46.4131 55.1504L46.8868 54.6766L28.8439 36.6337L28.3701 37.1074L27.8964 37.5812L45.9393 55.6242L46.4131 55.1504ZM28.3701 37.1074L28.8439 37.5812L33.5812 32.8439L33.1074 32.3701L32.6337 31.8964L27.8964 36.6337L28.3701 37.1074ZM33.1074 32.3701L32.6337 32.8439L50.6766 50.8868L51.1504 50.4131L51.6242 49.9393L33.5812 31.8964L33.1074 32.3701ZM51.1504 50.4131H51.8204V25H51.1504H50.4804V50.4131H51.1504ZM51.1504 25V25.67H57.8496V25V24.33H51.1504V25ZM57.8496 25H57.1796V50.4131H57.8496H58.5196V25H57.8496Z" fill="#1A1A1A"/>
</svg>
