<svg width="69" height="69" viewBox="0 0 69 69" fill="none" xmlns="http://www.w3.org/2000/svg">
<path d="M37.5195 26.0831L55.4893 8.1134L60.2266 12.8507L42.2568 30.8204H67.6699V37.5197H42.2568L60.1533 55.4161L55.416 60.1534L37.5195 42.257V67.67H30.8203V42.257L12.8506 60.2267L8.11328 55.4894L26.083 37.5197H0.669922V30.8204H26.083L8.04004 12.7775L12.7773 8.04016L30.8203 26.0831V0.670044H37.5195V26.0831Z" fill="#C479DE"/>
<path d="M37.5195 26.0831H36.8495V27.7007L37.9933 26.5569L37.5195 26.0831ZM55.4893 8.1134L55.963 7.63964L55.4893 7.16588L55.0155 7.63964L55.4893 8.1134ZM60.2266 12.8507L60.7003 13.3245L61.1741 12.8507L60.7003 12.3769L60.2266 12.8507ZM42.2568 30.8204L41.7831 30.3467L40.6393 31.4904H42.2568V30.8204ZM67.6699 30.8204H68.3399V30.1504H67.6699V30.8204ZM67.6699 37.5197V38.1897H68.3399V37.5197H67.6699ZM42.2568 37.5197V36.8497H40.6393L41.7831 37.9934L42.2568 37.5197ZM60.1533 55.4161L60.6271 55.8899L61.1008 55.4161L60.6271 54.9424L60.1533 55.4161ZM55.416 60.1534L54.9423 60.6272L55.416 61.101L55.8898 60.6272L55.416 60.1534ZM37.5195 42.257L37.9933 41.7832L36.8495 40.6394V42.257H37.5195ZM37.5195 67.67V68.34H38.1895V67.67H37.5195ZM30.8203 67.67H30.1503V68.34H30.8203V67.67ZM30.8203 42.257H31.4903V40.6394L30.3466 41.7832L30.8203 42.257ZM12.8506 60.2267L12.3768 60.7004L12.8506 61.1742L13.3243 60.7004L12.8506 60.2267ZM8.11328 55.4894L7.63952 55.0156L7.16576 55.4894L7.63952 55.9631L8.11328 55.4894ZM26.083 37.5197L26.5568 37.9934L27.7005 36.8497H26.083V37.5197ZM0.669922 37.5197H-7.81417e-05V38.1897H0.669922V37.5197ZM0.669922 30.8204V30.1504H-7.81417e-05V30.8204H0.669922ZM26.083 30.8204V31.4904H27.7005L26.5568 30.3467L26.083 30.8204ZM8.04004 12.7775L7.56628 12.3037L7.09252 12.7775L7.56628 13.2512L8.04004 12.7775ZM12.7773 8.04016L13.2511 7.5664L12.7773 7.09264L12.3036 7.5664L12.7773 8.04016ZM30.8203 26.0831L30.3466 26.5569L31.4903 27.7007V26.0831H30.8203ZM30.8203 0.670044V4.39286e-05H30.1503V0.670044H30.8203ZM37.5195 0.670044H38.1895V4.39286e-05H37.5195V0.670044ZM37.5195 26.0831L37.9933 26.5569L55.963 8.58716L55.4893 8.1134L55.0155 7.63964L37.0458 25.6094L37.5195 26.0831ZM55.4893 8.1134L55.0155 8.58716L59.7528 13.3245L60.2266 12.8507L60.7003 12.3769L55.963 7.63964L55.4893 8.1134ZM60.2266 12.8507L59.7528 12.3769L41.7831 30.3467L42.2568 30.8204L42.7306 31.2942L60.7003 13.3245L60.2266 12.8507ZM42.2568 30.8204V31.4904H67.6699V30.8204V30.1504H42.2568V30.8204ZM67.6699 30.8204H66.9999V37.5197H67.6699H68.3399V30.8204H67.6699ZM67.6699 37.5197V36.8497H42.2568V37.5197V38.1897H67.6699V37.5197ZM42.2568 37.5197L41.7831 37.9934L59.6796 55.8899L60.1533 55.4161L60.6271 54.9424L42.7306 37.0459L42.2568 37.5197ZM60.1533 55.4161L59.6796 54.9424L54.9423 59.6797L55.416 60.1534L55.8898 60.6272L60.6271 55.8899L60.1533 55.4161ZM55.416 60.1534L55.8898 59.6797L37.9933 41.7832L37.5195 42.257L37.0458 42.7307L54.9423 60.6272L55.416 60.1534ZM37.5195 42.257H36.8495V67.67H37.5195H38.1895V42.257H37.5195ZM37.5195 67.67V67H30.8203V67.67V68.34H37.5195V67.67ZM30.8203 67.67H31.4903V42.257H30.8203H30.1503V67.67H30.8203ZM30.8203 42.257L30.3466 41.7832L12.3768 59.7529L12.8506 60.2267L13.3243 60.7004L31.2941 42.7307L30.8203 42.257ZM12.8506 60.2267L13.3243 59.7529L8.58704 55.0156L8.11328 55.4894L7.63952 55.9631L12.3768 60.7004L12.8506 60.2267ZM8.11328 55.4894L8.58704 55.9631L26.5568 37.9934L26.083 37.5197L25.6092 37.0459L7.63952 55.0156L8.11328 55.4894ZM26.083 37.5197V36.8497H0.669922V37.5197V38.1897H26.083V37.5197ZM0.669922 37.5197H1.33992V30.8204H0.669922H-7.81417e-05V37.5197H0.669922ZM0.669922 30.8204V31.4904H26.083V30.8204V30.1504H0.669922V30.8204ZM26.083 30.8204L26.5568 30.3467L8.5138 12.3037L8.04004 12.7775L7.56628 13.2512L25.6092 31.2942L26.083 30.8204ZM8.04004 12.7775L8.5138 13.2512L13.2511 8.51392L12.7773 8.04016L12.3036 7.5664L7.56628 12.3037L8.04004 12.7775ZM12.7773 8.04016L12.3036 8.51392L30.3466 26.5569L30.8203 26.0831L31.2941 25.6094L13.2511 7.5664L12.7773 8.04016ZM30.8203 26.0831H31.4903V0.670044H30.8203H30.1503V26.0831H30.8203ZM30.8203 0.670044V1.34004H37.5195V0.670044V4.39286e-05H30.8203V0.670044ZM37.5195 0.670044H36.8495V26.0831H37.5195H38.1895V0.670044H37.5195Z" fill="#1A1A1A"/>
</svg>
